<?xml version="1.0" encoding="utf-8"?><svg xml:space="preserve" viewBox="0 0 100 100" y="0" x="0" xmlns="http://www.w3.org/2000/svg" id="圖層_1" version="1.1" width="200px" height="200px" xmlns:xlink="http://www.w3.org/1999/xlink" style="width:100%;height:100%;background-size:initial;background-repeat-y:initial;background-repeat-x:initial;background-position-y:initial;background-position-x:initial;background-origin:initial;background-image:initial;background-color:rgb(255, 255, 255);background-clip:initial;background-attachment:initial;animation-play-state:paused" ><g class="ldl-scale" style="transform-origin:50% 50%;transform:rotate(0deg) scale(0.8, 0.8);animation-play-state:paused" ><path stroke-miterlimit="10" stroke-width="8" stroke="#333" fill="none" d="M45.7 10.2L17.6 26.4c-2.7 1.5-4.3 4.4-4.3 7.4v32.4c0 3.1 1.6 5.9 4.3 7.4l28.1 16.2c2.7 1.5 5.9 1.5 8.6 0l28.1-16.2c2.7-1.5 4.3-4.4 4.3-7.4V33.8c0-3.1-1.6-5.9-4.3-7.4L54.3 10.2c-2.7-1.6-5.9-1.6-8.6 0z" style="stroke:rgb(51, 51, 51);animation-play-state:paused" ></path>
<path fill="#77a4bd" d="M75 54.9l-7.8-8.2-8.2 7.7 4.5.1c-1.6 4.8-5.7 8.5-10.8 9.5-3.7.7-7.5 0-10.7-2.2l-3.7 5.5c3.5 2.3 7.5 3.6 11.6 3.6 1.3 0 2.7-.1 4-.4 8.1-1.6 14.4-7.7 16.3-15.7l4.8.1z" style="fill:rgb(119, 164, 189);animation-play-state:paused" ></path>
<path fill="#a0c8d7" d="M46 29.5c-8.1 1.6-14.4 7.7-16.3 15.7l-4.7-.1 7.8 8.2 8.2-7.8-4.5-.1c1.6-4.8 5.7-8.5 10.8-9.5 3.7-.7 7.5 0 10.7 2.2l3.7-5.5c-4.7-3-10.2-4.1-15.7-3.1z" style="fill:rgb(160, 200, 215);animation-play-state:paused" ></path>
<metadata xmlns:d="https://loading.io/stock/" style="animation-play-state:paused" ><d:name style="animation-play-state:paused" >sync</d:name>
<d:tags style="animation-play-state:paused" >sync,reload,fetch,update,refresh,recycle,turn,swap,hexagon,form</d:tags>
<d:license style="animation-play-state:paused" >by</d:license>
<d:slug style="animation-play-state:paused" >nf4avs</d:slug></metadata></g><!-- generated by https://loading.io/ --></svg>